<?xml version="1.0" encoding="utf-8"?>
<!-- Generator: Adobe Illustrator 21.1.0, SVG Export Plug-In . SVG Version: 6.00 Build 0)  -->
<svg version="1.1" id="Layer_1" xmlns="http://www.w3.org/2000/svg" xmlns:xlink="http://www.w3.org/1999/xlink" x="0px" y="0px"
	 viewBox="0 0 383.5 136" style="enable-background:new 0 0 383.5 136;" xml:space="preserve">
<style type="text/css">
	.st0{fill:#FFFFFF;}
	.st1{fill:url(#SVGID_1_);}
	.st2{fill:url(#SVGID_2_);}
</style>
<rect x="-37" y="-38.5" width="441.5" height="192"/>
<title>Asset 1</title>
<path class="st0" d="M0,49.3h5.5L22.2,75V49.3h5.3v34.1h-5.4L5.4,57.9v25.5H0V49.3z"/>
<path class="st0" d="M48.9,49.3h5.4v34.1h-5.4V49.3z"/>
<path class="st0" d="M104.3,54l-3.4,3.6c-2.5-2.5-5.9-3.9-9.4-3.8c-7.3,0-12,5.5-12,12.6c0,7.6,5.1,12.7,12,12.7
	c5.2,0,8.2-2.2,9.1-3.1v-5.8h-7v-4.6h12.1v13C102,82,97.7,84,91.2,84c-9.7,0-17.4-7.1-17.4-17.7c0-9.9,7.3-17.7,17.5-17.7
	C98.5,48.7,102.6,52,104.3,54z"/>
<path class="st0" d="M126.1,49.3h5.4v14.4h16.2V49.3h5.4v34.1h-5.4V68.6h-16.2v14.8h-5.4V49.3z"/>
<path class="st0" d="M179.7,54.2h-8.6v-4.9h22.6v4.9h-8.6v29.3h-5.4V54.2z"/>
<path class="st0" d="M214.7,74.2c0.9,2.9,3.6,4.9,6.7,4.8c3.1,0,5.1-1.7,5.1-4.6c0-7.2-15.4-5.6-15.4-16.6c0-5.3,4-9.2,10.2-9.2
	c4.5-0.1,8.6,2.7,10.1,7l-4.5,2c-0.9-2.4-3.2-4-5.7-4c-3,0-4.7,1.8-4.7,4.2c0,6.7,15.5,5.5,15.5,16.2c0,5.7-4.1,10-10.9,10
	c-5,0.2-9.5-3-11-7.7L214.7,74.2z"/>
<path class="st0" d="M251.5,49.3h5.4v14.4h16.2V49.3h5.4v34.1h-5.4V68.6h-16.2v14.8h-5.4V49.3z"/>
<path class="st0" d="M299.9,49.3h5.4v34.1h-5.4V49.3z"/>
<path class="st0" d="M326.7,49.3h16.8v4.9h-11.4v9.9h10v4.8h-10v14.5h-5.4V49.3z"/>
<path class="st0" d="M369.5,54.2H361v-4.9h22.6v4.9H375v29.3h-5.4L369.5,54.2z"/>
<linearGradient id="SVGID_1_" gradientUnits="userSpaceOnUse" x1="313.4875" y1="131.8875" x2="293.7125" y2="112.1125">
	<stop  offset="0" style="stop-color:#FFCD78"/>
	<stop  offset="1" style="stop-color:#DC9632"/>
</linearGradient>
<path class="st1" d="M303.6,111c6.1,0,11,4.9,11,11c0,6.1-4.9,11-11,11s-11-4.9-11-11S297.5,111,303.6,111 M303.6,108
	c-7.7,0-14,6.3-14,14s6.3,14,14,14s14-6.3,14-14S311.3,108,303.6,108z"/>
<linearGradient id="SVGID_2_" gradientUnits="userSpaceOnUse" x1="80.1125" y1="4.1125" x2="99.8875" y2="23.8875">
	<stop  offset="0" style="stop-color:#FFCD78"/>
	<stop  offset="1" style="stop-color:#DC9632"/>
</linearGradient>
<path class="st2" d="M90,0c-7.7,0-14,6.3-14,14s6.3,14,14,14s14-6.3,14-14S97.7,0,90,0z"/>
</svg>
